<svg version="1.1" id="Layer_1" xmlns="http://www.w3.org/2000/svg" xmlns:xlink="http://www.w3.org/1999/xlink" x="0px" y="0px"
	 width="100%" viewBox="0 0 992 992" enable-background="new 0 0 992 992" xml:space="preserve">
<path fill="#000000" opacity="1.000000" stroke="none" 
	d="
M394.751343,796.871826 
	C399.565582,797.864929 403.946655,798.799622 408.344147,799.649353 
	C411.145050,800.190613 414.081085,801.188110 413.537201,804.469788 
	C413.037750,807.483398 409.787170,807.499939 407.338043,807.235535 
	C398.110291,806.239319 388.911652,804.977051 379.691528,803.905579 
	C369.147339,802.680237 358.615906,801.152405 348.033264,800.516602 
	C340.519928,800.065186 333.424225,803.405701 326.058990,804.683472 
	C310.005035,807.468689 293.875458,809.260010 277.627106,810.528076 
	C263.631775,811.620483 249.657394,811.559875 235.701187,811.208557 
	C215.121140,810.690308 194.607956,808.922974 174.136093,806.507935 
	C153.344009,804.055176 132.668793,801.073425 112.276176,796.321960 
	C104.821190,794.584961 97.517380,792.282654 90.428505,789.351746 
	C88.084732,788.382751 85.859200,787.196533 84.510994,784.956177 
	C81.930122,780.667603 84.436874,776.187012 89.761383,775.713806 
	C108.036156,774.089783 126.270920,775.401733 144.512207,776.515808 
	C153.142502,777.042908 161.784775,776.798889 170.441696,777.497742 
	C188.820969,778.981384 207.268784,779.593445 225.676270,780.756409 
	C244.735413,781.960449 263.799042,783.170349 282.825806,784.788147 
	C302.493256,786.460510 322.118469,788.628479 341.762695,790.574585 
	C345.909027,790.985352 349.609009,789.251770 353.351379,787.959473 
	C379.827240,778.817871 403.262665,764.435059 424.710205,746.575439 
	C446.650574,728.305481 466.021271,707.345520 486.662079,687.716248 
	C489.168518,685.332703 492.172302,683.404175 494.284393,679.819946 
	C487.893372,677.626953 481.697327,675.449707 475.466309,673.377747 
	C469.753723,671.478149 464.275452,669.053589 459.084869,666.033630 
	C457.241821,664.961426 455.489655,663.563843 454.067444,661.981018 
	C452.358765,660.079407 452.066986,657.697876 453.810303,655.589722 
	C455.618225,653.403503 457.927521,653.539429 460.088684,655.006409 
	C472.160675,663.201050 486.134216,666.669434 499.727814,671.100037 
	C502.534851,672.014893 504.980804,672.217346 507.727295,670.451050 
	C517.683533,664.048157 528.447266,659.861938 540.474792,659.566162 
	C541.077393,659.551331 541.670959,659.171021 542.470703,658.889893 
	C542.550598,655.191956 540.324707,652.591919 538.787842,649.743652 
	C534.062683,640.986267 526.392334,635.552734 517.776794,631.190247 
	C516.384583,630.485352 514.928345,630.305359 513.406006,630.474976 
	C484.911133,633.648804 457.410614,629.442322 430.746124,619.230103 
	C427.805206,618.103760 424.953430,616.646667 422.244507,615.033630 
	C417.087402,611.962952 416.266205,609.465515 418.289642,603.572998 
	C413.626343,600.083679 407.982025,597.676147 404.018341,593.061890 
	C401.743439,590.413513 398.809265,587.947754 400.165802,583.941101 
	C401.481445,580.055176 405.170349,579.457092 408.592255,578.630188 
	C418.228088,576.301758 427.842896,578.347473 437.360657,579.227661 
	C458.239075,581.158569 478.717346,585.481812 498.784515,591.626587 
	C500.869934,592.265137 502.214417,591.710388 503.376740,589.871643 
	C506.881805,584.326599 507.493317,578.789185 503.862152,573.044800 
	C499.984680,566.910828 494.357330,562.794006 488.047638,559.626221 
	C468.857697,549.991943 448.327209,544.482910 427.377960,540.351868 
	C422.656006,539.420715 417.864075,538.833557 413.159485,537.829590 
	C410.512604,537.264832 408.746368,537.136841 408.094208,540.518555 
	C407.547943,543.351074 405.119904,544.414246 402.365540,544.313293 
	C392.644775,543.957031 383.214417,542.213562 374.390717,537.949646 
	C371.489807,536.547791 369.373596,534.293274 370.262512,530.807129 
	C371.092651,527.551392 373.879974,526.852600 376.909576,526.613403 
	C379.713867,526.392029 382.493591,525.859802 385.829529,525.387207 
	C384.146881,523.087891 382.074707,521.842102 380.005249,520.652283 
	C371.346832,515.674255 362.979462,510.173889 353.747955,506.222351 
	C350.868652,504.989838 349.035339,502.708679 350.282623,499.458801 
	C351.723297,495.705170 355.148102,496.239960 357.990448,497.065216 
	C368.542664,500.128967 379.279785,502.327911 390.090088,504.138000 
	C401.547516,506.056488 413.018890,508.075043 424.723602,507.643311 
	C427.835541,507.528534 432.185486,507.924500 433.084747,504.946747 
	C434.136230,501.464844 430.823639,498.291016 428.505798,495.475159 
	C427.444641,494.186066 425.782806,494.377655 424.291656,494.399689 
	C404.612305,494.690277 385.148315,492.486206 365.745026,489.470612 
	C362.526550,488.970367 359.238190,488.441284 356.716339,491.741974 
	C355.790192,492.954193 353.813812,493.218201 352.096527,493.326385 
	C335.133575,494.395050 319.712006,490.541229 306.698334,479.080200 
	C304.848022,477.450684 302.639801,476.906128 300.379608,476.332123 
	C251.168854,463.834076 203.467056,447.224731 158.325287,423.763947 
	C138.776230,413.604034 119.937370,402.277832 103.237877,387.734833 
	C93.580559,379.324585 84.774620,370.046112 81.014809,357.513306 
	C74.386353,335.418274 80.464684,311.634796 106.409691,299.234131 
	C116.490959,294.415710 126.924362,290.464111 137.337860,286.455078 
	C139.033340,285.802368 140.963272,285.275635 142.243164,284.100647 
	C156.166092,271.318878 173.634644,266.841675 191.406464,263.770264 
	C216.621887,259.412445 242.091415,260.146698 267.559998,261.472839 
	C278.519440,262.043488 289.456482,262.717499 300.400879,263.534943 
	C326.627289,265.493927 352.510376,269.565247 378.161438,275.218811 
	C405.647522,281.276764 432.704193,288.851044 459.112549,298.644379 
	C461.183472,299.412384 463.280884,299.783661 465.471313,299.648773 
	C485.051819,298.442902 504.615204,297.105682 523.357544,290.575897 
	C528.391602,288.822052 533.625488,287.243530 537.730042,283.755798 
	C548.918701,274.248627 551.823303,262.289001 536.725342,253.138474 
	C524.024414,245.440704 509.914032,241.471649 495.826141,237.476913 
	C488.813141,235.488312 481.975922,232.798218 474.603180,232.077866 
	C472.580109,231.880203 470.732208,231.908524 468.745544,232.222183 
	C465.791260,232.688644 462.318420,233.291580 461.803223,228.881622 
	C461.292908,224.513794 464.253967,222.920822 467.951630,222.738037 
	C472.758698,222.500366 477.587067,222.355606 482.338806,223.629730 
	C500.011658,228.368378 517.722412,233.004913 534.431335,240.653763 
	C537.892822,242.238342 541.125977,244.362885 544.350464,246.417313 
	C560.889771,256.954987 558.789429,275.792816 548.877747,287.059570 
	C543.262451,293.442535 535.767517,296.636292 527.992065,299.282410 
	C514.710266,303.802551 501.049500,306.483917 487.044434,307.405426 
	C486.261505,307.456940 485.493896,307.742035 483.493225,308.197540 
	C491.560089,312.540039 498.689362,316.281189 505.728485,320.184906 
	C528.441895,332.781250 548.634766,348.301636 563.255127,370.208954 
	C570.051697,380.392914 575.749207,391.136108 578.208374,403.233215 
	C582.833252,425.984100 575.557434,444.905243 558.878784,460.472076 
	C543.641724,474.693420 524.767578,481.534271 504.964569,486.233368 
	C485.035828,490.962341 464.853027,493.970734 444.331573,494.376312 
	C443.352722,494.395660 442.375946,494.516541 441.092957,494.613159 
	C441.298126,498.937317 443.675995,502.557617 443.464539,506.812256 
	C443.228241,511.566803 441.270996,514.317078 436.732086,515.347656 
	C429.236816,517.049500 421.768982,517.662903 414.007538,516.804688 
	C405.771332,515.893982 397.521790,515.121033 391.119873,514.177002 
	C393.635529,517.109314 396.747101,521.588257 400.707001,525.114563 
	C404.747192,528.712402 410.491699,527.764282 415.477173,528.543823 
	C440.560699,532.466125 464.982971,538.663025 488.333008,548.752686 
	C495.426392,551.817871 501.864441,555.951782 507.287598,561.518372 
	C516.362061,570.832764 518.166443,581.161560 512.876099,593.017883 
	C512.478577,593.908752 512.139038,594.825562 511.665009,595.995789 
	C517.501465,599.427063 523.621338,602.213684 527.756165,607.672302 
	C532.037231,613.323914 534.665283,619.147095 530.024292,625.813232 
	C530.209595,627.249329 531.353516,627.775024 532.273132,628.411377 
	C542.088074,635.203430 548.598816,644.406189 552.365479,655.661438 
	C553.126831,657.936401 553.516479,660.148376 556.752075,660.954651 
	C579.534668,666.631958 596.418396,680.792908 609.976746,699.254639 
	C623.864197,718.164429 634.189880,738.920166 636.903625,762.422241 
	C640.146301,790.504700 633.381653,815.365112 609.839294,833.579346 
	C602.572632,839.201538 595.256104,844.722412 586.539490,847.929199 
	C584.797119,848.570251 582.936401,849.870972 580.367004,848.362488 
	C582.290771,844.000793 585.665894,840.861694 589.049500,837.793518 
	C596.573120,830.971130 605.450623,825.772888 612.369080,818.199463 
	C621.215820,808.515259 626.081543,797.078491 627.650085,784.179932 
	C631.142395,755.463013 620.065063,731.049988 604.630432,708.110474 
	C594.002319,692.314575 580.297913,679.898193 562.424011,672.580261 
	C561.195984,672.077515 559.916565,671.692749 558.644409,671.308411 
	C557.863464,671.072449 557.050659,670.941650 556.314880,670.777588 
	C548.975220,683.559021 538.665100,688.022217 523.406921,685.651489 
	C518.660889,684.914062 513.842590,684.621338 509.152344,683.467834 
	C506.307495,682.768188 504.504242,684.476379 502.590851,686.189941 
	C484.083862,702.764160 466.940979,720.752625 448.944611,737.853455 
	C427.324310,758.398071 403.779388,776.259827 376.589478,788.953735 
	C374.112823,790.110046 371.211395,790.607727 369.041656,793.277832 
	C377.692505,794.475220 386.008820,795.626343 394.751343,796.871826 
M380.348633,285.336212 
	C338.312012,275.063141 278.103210,269.638855 249.578278,270.576935 
	C257.308289,272.194824 265.277771,273.074829 272.815979,275.834961 
	C274.987823,276.630188 276.781281,277.915619 276.166901,280.618469 
	C275.516632,283.479431 273.088715,283.437134 270.957672,283.173584 
	C265.855164,282.542542 260.753265,281.822632 255.703934,280.861328 
	C239.394745,277.756317 222.872665,277.421173 206.480545,278.676788 
	C187.686295,280.116425 169.642700,285.737061 151.710556,291.418854 
	C148.273346,292.507965 145.979965,294.583130 144.485214,297.787598 
	C139.732605,307.976318 142.611420,316.973877 148.960922,325.262665 
	C155.684006,334.039093 163.624527,341.674316 172.432983,348.322784 
	C202.259308,370.835236 236.241043,385.075104 271.680847,395.378418 
	C301.676575,404.098907 333.065369,404.613495 364.108673,405.462463 
	C386.198212,406.066589 408.329712,404.460663 430.255859,401.492157 
	C445.751801,399.394226 460.206543,393.780151 473.615417,385.716400 
	C480.050842,381.846344 480.544464,379.334991 477.041626,372.566711 
	C473.533112,365.787567 468.295898,360.440918 462.716370,355.387604 
	C451.880646,345.573639 439.093201,338.633240 426.656586,331.225494 
	C421.524750,328.168823 417.246887,324.530334 413.712769,319.744781 
	C406.799622,310.383728 409.276489,304.288727 420.933136,302.657471 
	C425.383667,302.034637 429.864014,301.624817 434.330750,301.117920 
	C416.927856,294.384277 399.094666,289.761383 380.348633,285.336212 
M506.697906,476.024109 
	C523.017639,471.907074 538.501221,465.902313 551.234680,454.523529 
	C566.465393,440.913086 575.573425,421.457672 567.289551,398.871368 
	C559.545227,377.756348 546.115662,360.916809 528.782471,346.996185 
	C508.844971,330.983887 486.163177,319.842407 462.678741,310.158173 
	C460.576935,309.291473 458.390594,309.061798 456.308197,309.456451 
	C450.028351,310.646667 443.660583,309.850922 437.405151,310.514343 
	C432.079895,311.079102 426.532318,310.714813 421.127014,312.859833 
	C423.319183,316.686523 426.066345,319.374695 429.560730,321.523682 
	C441.327972,328.760437 453.479126,335.421814 464.324249,344.073547 
	C472.844849,350.870911 480.613281,358.389587 485.702637,368.207123 
	C491.240234,378.889282 489.157745,387.157074 479.254028,393.592773 
	C475.917664,395.760834 472.282501,397.485291 468.720581,399.287292 
	C444.248474,411.667542 417.570404,413.196167 391.007660,414.160004 
	C359.427795,415.305939 327.837097,414.489258 296.365723,410.056946 
	C308.452454,417.742218 318.604767,427.520691 328.635803,437.436005 
	C330.444702,439.224060 332.158569,440.795929 335.033783,440.690948 
	C342.901825,440.403717 350.601746,441.915863 358.181732,443.724335 
	C383.274506,449.711090 406.967316,458.966980 425.739716,477.317108 
	C431.954987,483.392517 437.394043,485.836700 446.420471,485.149109 
	C466.529633,483.617279 486.364471,481.097137 506.697906,476.024109 
M144.348969,405.090210 
	C152.518570,409.578949 160.563248,414.315063 168.879013,418.514374 
	C208.250565,438.396362 249.623871,452.967438 292.128998,464.457489 
	C294.420135,465.076813 296.748840,466.469208 299.477325,465.389679 
	C300.883087,453.544983 308.165009,446.484924 319.146027,442.381439 
	C318.397675,441.459412 318.040955,440.920441 317.589447,440.478333 
	C307.738708,430.832367 296.677521,422.306458 289.584656,410.112183 
	C288.615234,408.445557 286.826813,408.550690 285.201996,408.198883 
	C243.887924,399.253693 205.852936,382.626190 170.867142,359.009521 
	C161.588867,352.746338 153.446442,345.073883 145.958130,336.752045 
	C136.366074,326.092316 130.087082,314.240021 133.652817,298.479828 
	C122.297203,302.613586 111.945580,306.549194 102.703117,312.974030 
	C95.980881,317.646912 91.534523,323.907593 89.572929,331.802490 
	C86.324158,344.877777 88.613388,356.844635 97.163544,367.465637 
	C109.933449,383.328339 126.642639,394.250458 144.348969,405.090210 
M170.928802,786.863098 
	C149.923218,785.958984 128.917648,785.054871 107.912064,784.150696 
	C146.257004,799.360718 286.819794,807.734985 310.163422,796.731812 
	C263.946442,793.038818 217.938309,789.477539 170.928802,786.863098 
M397.066284,468.488556 
	C379.773315,459.344269 361.637085,452.864258 341.808594,450.701630 
	C341.986053,451.551270 341.938324,452.123047 342.198364,452.450287 
	C348.124298,459.907013 353.121429,467.931427 357.083954,476.596466 
	C358.233154,479.109436 360.512939,479.380829 362.894531,479.682800 
	C372.265472,480.870880 381.597595,482.439575 390.995422,483.319489 
	C400.004028,484.162903 409.038879,485.460205 418.798828,484.436920 
	C412.423035,477.694977 405.193481,473.104034 397.066284,468.488556 
M440.017334,601.520020 
	C460.015167,606.518188 483.695679,605.653809 490.985687,599.326172 
	C465.650940,592.547974 440.419922,587.422668 414.260315,588.057129 
	C421.575867,594.641174 430.261230,598.239197 440.017334,601.520020 
M310.087982,462.466766 
	C308.745789,466.199493 310.148926,468.546814 313.776031,469.768372 
	C314.091125,469.874512 314.410217,469.973877 314.733887,470.048676 
	C324.772919,472.369873 334.752838,475.014618 345.682709,476.255737 
	C342.177826,468.455994 337.386047,462.508057 332.616150,456.564209 
	C327.673248,450.404785 323.425568,449.823944 316.880127,454.392426 
	C314.130829,456.311340 311.791351,458.685699 310.087982,462.466766 
M514.547913,618.798645 
	C517.209351,620.100403 519.632324,619.765198 522.130981,617.609985 
	C519.113892,610.487488 512.852966,606.949280 506.248077,605.192505 
	C501.482849,603.925049 498.009796,609.309387 492.687012,610.716248 
	C500.460419,613.599854 507.144470,616.079407 514.547913,618.798645 
M479.247955,617.395874 
	C466.634644,613.415649 453.203979,615.398499 440.497589,612.057495 
	C458.052704,618.887329 476.372986,621.572998 495.199860,621.813293 
	C490.155518,620.391541 485.111176,618.969788 479.247955,617.395874 
M545.236694,669.616333 
	C544.728394,669.236206 544.203979,668.505676 543.714050,668.528076 
	C535.193237,668.918091 527.061462,670.729553 519.150757,675.160156 
	C521.211548,675.663757 522.616516,676.196594 524.057922,676.327759 
	C531.903320,677.041443 539.610962,677.142700 545.236694,669.616333 
z"/>
<path fill="#000000" opacity="1.000000" stroke="none" 
	d="
M143.164581,715.124939 
	C124.784119,710.821228 106.504150,708.582642 88.224663,706.310242 
	C74.875160,704.650696 61.602592,702.492737 48.605965,698.940857 
	C46.679680,698.414429 44.365166,698.025330 43.282757,695.348022 
	C47.871010,694.078247 52.043549,693.345093 56.646385,694.164734 
	C64.004745,695.475037 71.532112,694.682556 79.009338,695.517090 
	C117.882584,699.855408 156.399918,705.738525 193.266159,719.506897 
	C196.937637,720.878113 202.923065,722.022583 200.836700,727.367493 
	C199.091599,731.838074 194.238861,728.694946 190.803070,727.679016 
	C175.182999,723.060059 159.589828,718.347961 143.164581,715.124939 
z"/>
</svg>